<svg xmlns="http://www.w3.org/2000/svg" id="Layer_1" data-name="Layer 1" viewBox="0 0 1080 1080"><defs><style>
      .cls-1 {
        fill: #f97316;
      }

      .cls-2 {
        fill: #232647;
      }</style></defs><g><path d="m664.57,558.3c-3.39-1.61-5.79-3.22-7.2-4.81l-2.11-2.52v37.72h-18.82v-97.81h18.82v8.39c.18-.27.47-.61.85-1.02s1.2-1.17,2.46-2.29c1.25-1.11,2.6-2.11,4.06-3,1.45-.89,3.34-1.68,5.66-2.39s4.73-1.06,7.23-1.06c8.87,0,16.56,3.44,23.09,10.33,6.53,6.89,9.79,15.31,9.79,25.27s-3.26,18.38-9.79,25.27c-6.52,6.89-14.22,10.33-23.09,10.33-3.91,0-7.56-.81-10.95-2.42Zm-4.4-46.72c-3.27,3.52-4.91,8.04-4.91,13.54s1.64,10.03,4.91,13.57c3.27,3.55,7.24,5.32,11.9,5.32s8.62-1.77,11.87-5.32c3.25-3.55,4.88-8.07,4.88-13.57s-1.63-10.02-4.88-13.54c-3.25-3.52-7.21-5.29-11.87-5.29s-8.63,1.76-11.9,5.29Z"></path><path d="m758.65,552.4c-.55.64-1.32,1.42-2.32,2.35s-3.19,2.16-6.58,3.68c-3.39,1.52-6.95,2.29-10.67,2.29-7.82,0-14.2-2.63-19.13-7.88-4.93-5.25-7.4-12.24-7.4-20.97v-40.99h18.82v39.15c0,3.82,1.26,6.98,3.79,9.48,2.52,2.5,5.7,3.75,9.52,3.75,4.27,0,7.67-1.39,10.2-4.16,2.52-2.77,3.79-6.73,3.79-11.87v-36.36h18.83v68.48h-18.83v-6.96Z"></path><path d="m806.11,559.35h-18.89v-97.81h18.89v97.81Z"></path><path d="m852.88,511.13c-.27-.36-.72-.86-1.33-1.5-.61-.64-1.9-1.47-3.85-2.49-1.95-1.02-3.96-1.54-6-1.54-2.59,0-4.64.56-6.14,1.67s-2.25,2.4-2.25,3.85c0,1.77,1.07,3.25,3.21,4.43s4.74,2.24,7.81,3.17,6.17,2.05,9.31,3.34c3.14,1.3,5.78,3.39,7.91,6.28,2.14,2.89,3.21,6.47,3.21,10.74,0,6.14-2.42,11.28-7.26,15.41-4.84,4.14-11.49,6.21-19.95,6.21-3.64,0-7.09-.43-10.37-1.3-3.27-.86-5.93-1.91-7.98-3.14-2.05-1.23-3.83-2.44-5.35-3.65-1.52-1.2-2.63-2.22-3.31-3.03l-.95-1.43,10.5-10.44c.36.55.94,1.24,1.74,2.08.8.84,2.47,1.98,5.01,3.41,2.55,1.43,5.18,2.15,7.91,2.15,3,0,5.26-.58,6.79-1.74,1.52-1.16,2.29-2.67,2.29-4.54s-1.07-3.42-3.21-4.67c-2.14-1.25-4.78-2.34-7.91-3.27-3.14-.93-6.24-2.06-9.31-3.38-3.07-1.32-5.67-3.37-7.81-6.14-2.14-2.77-3.21-6.27-3.21-10.5,0-5.5,2.56-10.48,7.67-14.94,5.12-4.46,11.4-6.68,18.86-6.68,4.73,0,9.08.89,13.06,2.66,3.98,1.77,6.74,3.5,8.29,5.18l2.39,2.66-9.75,11.12Z"></path><path d="m884.23,531.39c.73,3.73,2.71,6.88,5.93,9.45s7.3,3.85,12.21,3.85c3.55,0,6.83-.69,9.86-2.08,3.02-1.39,5.15-2.78,6.38-4.19l1.98-2.11,9.75,12.55-1.26,1.26c-.57.57-1.79,1.53-3.65,2.9s-3.84,2.58-5.93,3.65c-2.09,1.07-4.81,2.01-8.15,2.83-3.34.82-6.79,1.23-10.33,1.23-10.05,0-18.62-3.49-25.72-10.47-7.09-6.98-10.64-15.36-10.64-25.13s3.5-18.15,10.5-25.13c7-6.98,15.39-10.47,25.17-10.47s17.92,3.26,24.42,9.79c6.5,6.53,9.75,14.68,9.75,24.45l-.68,7.64h-49.59Zm5.9-22.3c-2.8,2.32-4.76,5.34-5.9,9.07h31.44c-.73-3.64-2.47-6.64-5.22-9s-6.13-3.55-10.13-3.55-7.4,1.16-10.2,3.48Z"></path></g><g><path d="m359.88,588.68h-9.75v-96.38h9.75v10.5c.18-.27.51-.69.99-1.26.48-.57,1.45-1.53,2.93-2.9,1.48-1.36,3.08-2.58,4.81-3.65s3.94-2.02,6.65-2.86c2.71-.84,5.49-1.26,8.36-1.26,8.55,0,16.04,3.43,22.47,10.3s9.65,15.09,9.65,24.66-3.21,17.78-9.62,24.62c-6.41,6.84-13.91,10.27-22.51,10.27-2.86,0-5.63-.41-8.29-1.23-2.66-.82-4.9-1.8-6.72-2.93-1.82-1.14-3.4-2.28-4.74-3.44s-2.35-2.15-3.04-2.97l-.95-1.3v39.83Zm7.33-44.78c4.89,5.16,10.36,7.74,16.4,7.74s10.95-2.51,15.52-7.54c4.57-5.03,6.86-11.12,6.86-18.28s-2.29-13.25-6.86-18.28c-4.57-5.02-9.74-7.54-15.52-7.54s-11.52,2.58-16.4,7.74c-4.89,5.16-7.33,11.19-7.33,18.07s2.44,12.91,7.33,18.08Z"></path><path d="m458.35,500.69h-4.23c-5.77,0-10.71,2-14.8,6-4.09,4-6.14,9.21-6.14,15.62v37.04h-9.75v-67.05h9.75v9.07c.18-.27.45-.65.82-1.13.36-.48,1.23-1.32,2.59-2.52s2.83-2.27,4.4-3.21,3.66-1.77,6.28-2.52c2.61-.75,5.38-1.13,8.29-1.13h2.8v9.82Z"></path><path d="m466.65,529.34c.36,6.05,2.85,11.28,7.47,15.69s10.04,6.62,16.27,6.62c4.18,0,8.07-.93,11.66-2.8,3.59-1.86,6.14-3.73,7.64-5.59l2.39-2.73,6.28,6.28c-.27.36-.67.88-1.19,1.53-.52.66-1.66,1.77-3.41,3.34s-3.64,2.96-5.66,4.16c-2.02,1.2-4.64,2.32-7.84,3.34-3.21,1.02-6.49,1.54-9.86,1.54-9.14,0-17.01-3.4-23.6-10.2-6.59-6.8-9.89-15.04-9.89-24.73s3.26-17.93,9.79-24.73c6.53-6.8,14.2-10.2,23.02-10.2s16.78,3.17,22.92,9.51c6.14,6.34,9.21,14.36,9.21,24.04l-.68,5.05-54.5-.14Zm7.71-23.12c-4.37,4.14-6.93,9.05-7.71,14.73h45.43c-.73-6.05-3.17-11.05-7.33-15.01-4.16-3.96-9.17-5.93-15.04-5.93s-10.98,2.07-15.35,6.21Z"></path><path d="m563.02,506.97c-.36-.55-.9-1.19-1.6-1.94-.7-.75-2.33-1.77-4.88-3.07-2.55-1.3-5.27-1.94-8.18-1.94-3.73,0-6.75.98-9.07,2.93-2.32,1.95-3.48,4.23-3.48,6.82s1.25,4.84,3.75,6.48c2.5,1.64,5.52,2.94,9.07,3.92,3.55.98,7.09,2.09,10.64,3.34s6.57,3.3,9.07,6.14c2.5,2.84,3.75,6.47,3.75,10.88,0,5.78-2.21,10.58-6.62,14.43-4.41,3.84-10.34,5.76-17.8,5.76-3.18,0-6.17-.41-8.97-1.23-2.8-.82-5.1-1.8-6.92-2.93-1.82-1.14-3.4-2.28-4.74-3.44s-2.33-2.15-2.97-2.97l-.89-1.3,7.03-6.96c.18.27.43.63.75,1.06s1.03,1.2,2.15,2.32,2.31,2.11,3.58,3c1.27.89,2.91,1.67,4.91,2.35s4.02,1.02,6.07,1.02c4.73,0,8.36-1.05,10.88-3.14,2.52-2.09,3.79-4.75,3.79-7.98,0-2.77-1.26-5.04-3.79-6.79-2.52-1.75-5.55-3.14-9.07-4.16-3.52-1.02-7.06-2.16-10.61-3.41-3.55-1.25-6.58-3.23-9.11-5.93-2.52-2.71-3.79-6.2-3.79-10.47,0-5.05,2.13-9.46,6.38-13.23,4.25-3.77,9.58-5.66,15.99-5.66,2.59,0,5.13.31,7.61.92,2.48.61,4.51,1.36,6.1,2.25,1.59.89,3.01,1.8,4.26,2.73,1.25.93,2.15,1.67,2.69,2.22l1.02,1.02-7.03,6.96Z"></path><path d="m613.27,506.97c-.36-.55-.9-1.19-1.6-1.94s-2.33-1.77-4.88-3.07-5.28-1.94-8.19-1.94c-3.73,0-6.75.98-9.07,2.93-2.32,1.95-3.48,4.23-3.48,6.82s1.25,4.84,3.75,6.48,5.53,2.94,9.07,3.92c3.55.98,7.09,2.09,10.64,3.34,3.55,1.25,6.57,3.3,9.07,6.14,2.5,2.84,3.75,6.47,3.75,10.88,0,5.78-2.21,10.58-6.62,14.43-4.41,3.84-10.35,5.76-17.8,5.76-3.18,0-6.17-.41-8.97-1.23s-5.1-1.8-6.92-2.93c-1.82-1.14-3.4-2.28-4.74-3.44-1.34-1.16-2.33-2.15-2.97-2.97l-.89-1.3,7.02-6.96c.18.27.43.63.75,1.06.32.43,1.03,1.2,2.15,2.32s2.31,2.11,3.58,3c1.27.89,2.91,1.67,4.91,2.35s4.02,1.02,6.07,1.02c4.73,0,8.36-1.05,10.88-3.14,2.52-2.09,3.79-4.75,3.79-7.98,0-2.77-1.26-5.04-3.79-6.79-2.52-1.75-5.55-3.14-9.07-4.16-3.52-1.02-7.06-2.16-10.61-3.41-3.55-1.25-6.58-3.23-9.11-5.93-2.52-2.71-3.78-6.2-3.78-10.47,0-5.05,2.13-9.46,6.38-13.23,4.25-3.77,9.58-5.66,15.99-5.66,2.59,0,5.13.31,7.61.92,2.48.61,4.51,1.36,6.1,2.25,1.59.89,3.01,1.8,4.26,2.73,1.25.93,2.15,1.67,2.69,2.22l1.02,1.02-7.03,6.96Z"></path></g><g><path d="m278.74,533.67c0,11.15-3.45,21.5-9.37,30.06-3.5-4.42-7.66-8.3-12.32-11.49,3.25-5.44,5.1-11.79,5.1-18.57,0-20.12-16.36-36.48-36.48-36.48s-36.47,16.36-36.47,36.48c0,6.78,1.85,13.12,5.09,18.57-4.66,3.19-8.83,7.08-12.32,11.5-5.9-8.55-9.36-18.92-9.36-30.07,0-29.28,23.81-53.08,53.07-53.08s53.08,23.8,53.08,53.08Z"></path><path d="m211.71,550.71c3.8,3.12,8.66,4.99,13.95,4.99s10.15-1.87,13.95-4.99c4.93-4.05,8.08-10.18,8.08-17.04,0-12.15-9.88-22.04-22.03-22.04s-22.03,9.88-22.03,22.04c0,6.86,3.15,12.99,8.08,17.04Z"></path><path d="m192.18,574.8c3.84,3.15,8.14,5.76,12.78,7.72,6.36,2.71,13.37,4.21,20.71,4.21s14.35-1.5,20.71-4.21c4.63-1.97,8.93-4.58,12.78-7.72-3.27-4.61-7.47-8.52-12.32-11.45-6.19-3.74-13.43-5.9-21.16-5.9s-14.98,2.16-21.16,5.89c-4.85,2.94-9.05,6.84-12.32,11.46Z"></path><path d="m304.9,521.45c-.08-.5-.16-1-.24-1.49-.23-1.35-.5-2.67-.8-4-5.65-25.09-23.07-45.73-46.16-55.79,0,0,0,0,0,0-.81-.35-1.63-.69-2.45-1.02s-1.65-.65-2.49-.94h0c-.92-.33-1.85-.65-2.79-.94-1.41-.45-2.83-.87-4.27-1.23-.64-.17-1.29-.32-1.94-.47-.97-.23-1.94-.44-2.93-.62-.98-.18-1.97-.35-2.95-.51-3.98-.61-8.06-.93-12.21-.93s-8.13.31-12.06.91c-.66.1-1.31.2-1.96.31-1.3.23-2.59.49-3.87.79-.64.15-1.28.31-1.91.46-1.98.51-3.93,1.08-5.85,1.73-.77.26-1.53.53-2.28.81h0c-.67.25-1.35.51-2.01.78-19.31,7.78-34.89,22.87-43.32,41.84-.59,1.31-1.13,2.64-1.64,3.98-.23.59-.45,1.2-.66,1.8-.02,0-.02.02-.02.03-.16.45-.31.9-.46,1.35-.3.9-.59,1.82-.86,2.74-.14.45-.26.92-.39,1.38-.03.09-.05.17-.07.26-.16.57-.31,1.15-.45,1.73-.14.56-.28,1.13-.4,1.7-.04.18-.09.37-.12.55-.1.46-.2.93-.29,1.41-.03.16-.07.31-.1.47-.1.52-.19,1.06-.28,1.59-.09.48-.17.96-.24,1.44-.09.56-.17,1.12-.24,1.68-.02.13-.03.27-.05.41-.05.38-.1.75-.13,1.14-.04.3-.07.59-.1.9-.06.59-.11,1.18-.16,1.77v.04c-.05.61-.09,1.22-.12,1.84,0,.09,0,.17,0,.26-.03.59-.06,1.2-.07,1.8,0,.09,0,.17,0,.25,0,.18-.02.37-.02.55,0,.1,0,.19,0,.29h-.02v93.23c0,.42.34.76.76.76h15.09c.42,0,.76-.34.76-.76v-43.23s.02.02.02.03v-47.59c-.02-.43-.02-.86-.02-1.28,0-.55,0-1.09.02-1.63,0-.52.03-1.05.06-1.57,0-.05,0-.1,0-.16.02-.48.05-.95.09-1.43.08-1.12.21-2.24.34-3.36,0-.05.01-.11.02-.16.05-.45.11-.91.19-1.35.07-.52.16-1.05.26-1.57.09-.52.19-1.04.3-1.56.12-.59.25-1.18.38-1.76.1-.45.21-.88.32-1.31.12-.48.25-.95.38-1.43.03-.08.05-.16.07-.24.12-.39.24-.8.36-1.19.03-.1.06-.2.1-.3.14-.45.28-.89.44-1.34.16-.5.33-.99.52-1.47.15-.41.31-.82.46-1.22.24-.64.51-1.27.77-1.89.17-.4.35-.8.52-1.19.21-.47.43-.93.66-1.4.17-.37.36-.73.54-1.09.31-.6.62-1.2.94-1.79.22-.4.44-.8.67-1.2.21-.38.43-.75.66-1.12.34-.56.68-1.1,1.02-1.64.23-.34.45-.68.67-1.02.05-.07.1-.14.14-.2.26-.38.52-.77.8-1.15,0,0,0-.02.02-.03.28-.39.56-.79.86-1.17.03-.03.05-.07.07-.1.29-.39.59-.79.9-1.17.28-.37.57-.73.86-1.07.24-.28.47-.56.7-.83.21-.25.43-.51.65-.75.59-.66,1.19-1.32,1.79-1.96.35-.37.71-.73,1.07-1.09.31-.32.64-.64.96-.93.07-.07.13-.13.2-.19.3-.29.59-.57.9-.84,1.17-1.08,2.39-2.11,3.64-3.09.38-.3.75-.59,1.14-.87.45-.34.9-.67,1.35-.99.38-.28.78-.55,1.17-.82.02,0,.04-.03.06-.03.42-.28.84-.56,1.26-.83.43-.28.87-.55,1.3-.81.38-.24.77-.46,1.15-.69.23-.13.46-.26.69-.39.37-.21.74-.41,1.12-.61,1.26-.68,2.53-1.31,3.84-1.9.47-.22.94-.42,1.42-.62.3-.13.59-.25.89-.37.26-.11.52-.21.78-.31.48-.19.96-.37,1.44-.54,3.34-1.21,6.81-2.15,10.37-2.79.52-.1,1.04-.18,1.57-.26.03,0,.06,0,.1-.02,1.02-.15,2.04-.28,3.08-.38,2.14-.22,4.3-.33,6.49-.33,23,0,43.18,12.28,54.34,30.63.4.66.79,1.32,1.16,1.98.38.69.75,1.38,1.11,2.08.27.53.52,1.08.78,1.62.19.41.4.81.58,1.22.19.44.39.88.58,1.32.15.36.3.72.45,1.07.29.72.57,1.44.83,2.18.09.26.18.52.27.78.12.34.23.69.34,1.03.08.26.17.51.25.77.11.38.23.75.34,1.13.32,1.13.62,2.26.89,3.42.25,1.11.48,2.23.68,3.36.06.38.12.75.18,1.14.08.51.16,1.01.22,1.53.02.13.03.25.05.38.32,2.6.49,5.23.49,7.92,0,1.64-.06,3.27-.18,4.88-.09,1.07-.19,2.14-.32,3.2-.25,1.98-.6,3.94-1.03,5.87-.15.64-.3,1.28-.46,1.91-.12.51-.26,1.01-.41,1.51-.15.51-.3,1-.45,1.49-.35,1.12-.73,2.23-1.14,3.32-.14.36-.28.73-.42,1.08-.18.49-.38.97-.59,1.44-.2.48-.41.95-.63,1.43-.19.42-.39.84-.59,1.25-.07.16-.15.3-.21.43-.13.27-.26.54-.4.81-.12.24-.25.48-.38.73-.16.31-.31.61-.49.91-.23.42-.45.84-.7,1.25-.33.59-.67,1.16-1.03,1.73-.18.31-.38.63-.59.94-.89,1.39-1.84,2.74-2.82,4.05-.23.31-.45.6-.69.9-.25.32-.5.64-.76.94-.27.34-.55.68-.84,1.01-.32.38-.65.76-.99,1.14-.66.75-1.35,1.49-2.05,2.2-2.17,2.21-4.48,4.26-6.94,6.13-.33.25-.67.51-1,.75-.34.25-.68.5-1.03.74-3.46,2.44-7.17,4.53-11.09,6.23-.42.19-.85.37-1.27.54-.34.14-.68.28-1.02.41-1.68.66-3.38,1.24-5.12,1.75-.31.1-.64.19-.97.28-.42.11-.84.23-1.26.33-.56.15-1.12.28-1.69.4-.37.09-.73.17-1.1.24-.59.12-1.19.24-1.79.34-.4.08-.81.15-1.22.21-.2.03-.4.06-.59.09-.87.13-1.74.24-2.62.33-.45.04-.9.09-1.35.12-.43.04-.86.07-1.29.1-.37.03-.74.04-1.11.06-.21.02-.43.02-.64.03-.31.02-.63.03-.93.03-.45,0-.9.02-1.35.02s-.9,0-1.35-.02c-.31,0-.62,0-.93-.03-.21,0-.43,0-.64-.03-.37-.02-.74-.03-1.11-.06-.44-.03-.87-.05-1.29-.1-.45-.03-.9-.08-1.35-.12-.88-.1-1.76-.2-2.62-.33-.19-.03-.39-.06-.59-.09-.41-.06-.82-.13-1.22-.21-.6-.1-1.2-.22-1.79-.34-.37-.08-.73-.16-1.1-.24-.57-.12-1.13-.25-1.69-.4-.42-.1-.84-.22-1.26-.33-.33-.09-.66-.18-.97-.28-1.74-.51-3.44-1.09-5.12-1.75-.34-.13-.68-.27-1.02-.41-.42-.17-.85-.35-1.27-.54-3.91-1.7-7.63-3.79-11.09-6.23-.35-.24-.69-.49-1.03-.74-.33-.24-.67-.5-1-.75-5.03-3.84-9.48-8.41-13.17-13.55-.45-.63-1.44-.31-1.44.46v21.68c0,.58.25,1.13.68,1.5,3.58,3.09,7.46,5.85,11.56,8.27,0,0,0,.02,0,.03.76.45,1.52.88,2.29,1.31.61.33,1.22.66,1.84.98h0c.61.32,1.23.62,1.84.92.15.07.3.15.45.22,0,0,0,0,0,0,.8.38,1.61.76,2.42,1.11,1.39.61,2.8,1.18,4.24,1.7.11.04.23.09.34.12.8.3,1.62.58,2.43.85.59.19,1.18.38,1.77.56.37.11.74.23,1.12.33.49.14.99.28,1.49.41.49.13,1,.26,1.49.38,1.78.45,3.59.82,5.43,1.14.99.17,1.97.32,2.97.45.3.04.6.08.91.11.15.03.31.04.46.06.71.08,1.42.16,2.14.22,1.02.1,2.04.17,3.08.22.68.03,1.37.06,2.05.08.69.02,1.38.03,2.07.03s1.38,0,2.07-.03c.68-.02,1.37-.04,2.05-.08,1.03-.05,2.05-.12,3.08-.22.69-.06,1.37-.13,2.05-.21,1.51-.17,3.01-.38,4.5-.65.42-.07.83-.15,1.24-.23.45-.09.88-.17,1.33-.26,1.32-.27,2.62-.58,3.91-.92.91-.24,1.82-.49,2.71-.76h.02c.74-.23,1.49-.46,2.22-.71.49-.16.97-.32,1.45-.5.11-.03.23-.07.34-.12.35-.12.7-.25,1.05-.38.53-.19,1.06-.39,1.58-.6.98-.38,1.94-.8,2.9-1.22,12.41-5.51,23.15-14.07,31.26-24.74.94-1.23,1.84-2.48,2.71-3.77.54-.81,1.07-1.63,1.59-2.45.26-.41.52-.83.76-1.25.22-.36.43-.73.64-1.08.31-.52.61-1.07.91-1.61.3-.53.59-1.07.87-1.63,0,0,0-.02.02-.03.34-.65.66-1.31.99-1.97.36-.73.7-1.48,1.03-2.23.27-.61.53-1.23.8-1.85.02-.03.03-.08.05-.12.35-.83.68-1.68,1-2.53.03-.08.06-.16.09-.24.33-.9.66-1.82.96-2.74.24-.72.46-1.44.68-2.17.21-.73.42-1.45.61-2.18.2-.73.38-1.48.56-2.22.17-.73.34-1.49.5-2.23.28-1.34.52-2.68.73-4.05,0-.04.02-.1.02-.14.07-.39.12-.79.17-1.19.07-.44.12-.87.17-1.32.02-.1.03-.2.03-.31.07-.56.13-1.13.17-1.7.04-.36.07-.72.1-1.07.03-.34.05-.69.07-1.03.03-.31.05-.64.06-.95.03-.52.06-1.05.07-1.57.04-.97.06-1.95.06-2.93,0-4.15-.31-8.22-.93-12.21Z"></path></g></svg>